<svg xmlns="http://www.w3.org/2000/svg" width="60" height="60" viewBox="0 0 3573 2822"><defs><style>.cls-1{fill-rule:evenodd;}</style></defs><g id="Capa_2" data-name="Capa 2"><polygon class="cls-1" points="2383.66 1956.12 1407 0 975 0 0 1953 505 1956.13 1189.81 535.79 1872 1953 2383.66 1956.12"/><polygon class="cls-1" points="3573 1956.13 2598.51 0 2166.51 0 1188.64 1955.87 1696.51 1956.13 2381.32 535.79 3066.61 1956.1 3573 1956.13"/><polygon class="cls-1" points="3072.44 2082 3072.44 2414.78 2370.33 2414.78 2370.33 2082 1203.67 2082 1203.67 2414.78 501.56 2414.78 501.56 2082 0 2082 0 2822 3573 2822 3573 2082 3072.44 2082"/></g></svg>