<svg xmlns="http://www.w3.org/2000/svg" width="65" height="65" viewBox="0 0 720 569">
  <defs>
    <style>
      .cls-1 {
        stroke: #000;
        stroke-width: 0.202px;
        fill-rule: evenodd;
      }
    </style>
  </defs>
  <path class="cls-1" d="M720,393.505H619.647a17.806,17.806,0,0,0-1.612-3.224c-2.148-4.859-4.774-9.4-6.851-14.1-5.459-12.362-11.878-23.906-17.33-36.268-1.987-4.5-4.867-8.994-6.851-13.5-4.4-9.976-9.506-19.24-13.905-29.215-0.946-2.147-2.48-4.3-3.425-6.448-3.342-7.587-7.136-14.581-10.479-22.164-0.947-2.147-2.48-4.3-3.426-6.447-3.192-7.249-7.152-14.062-10.277-21.156-9.716-22.06-21.509-42.82-31.234-64.879-1.986-4.5-4.867-8.994-6.851-13.5-5.444-12.362-11.891-23.9-17.33-36.268-0.883-2.006-2.22-4.093-3.225-6.044-0.951-1.848-1.477-3.631-2.418-5.44a29.766,29.766,0,0,1-2.619-5.44,0.723,0.723,0,0,0-.2.4c-1.35,1.525-1.95,3.87-2.821,5.843-0.887,2.009-2.338,4.034-3.224,6.044-1.238,2.806-2.228,5.34-3.627,8.06-4.468,8.684-8.9,17.524-12.9,26.6-3.008,6.821-6.8,13.375-9.874,20.35-3.911,8.871-9.192,17.521-13.1,26.395-3.129,7.11-7.013,13.8-10.075,20.753-10.222,23.221-22.613,45.09-32.846,68.3-0.947,2.148-2.481,4.3-3.426,6.448-4.063,9.229-9.105,17.926-13.1,27-3.158,7.173-6.713,13.781-9.874,20.955-0.947,2.147-2.481,4.3-3.426,6.448-3.692,8.389-7.716,16.575-11.889,24.581-1.956,3.753-3.528,7.61-5.441,11.283-0.351.675-1.387,3.731-1.814,4.03h-6.65c-0.982.606-5.665,0.2-7.254,0.2h-18.74l-68.917.4c0.313-2.487,2.911-6.121,4.03-8.261,3.083-5.9,5.83-11.917,8.866-17.731,10.343-19.807,19.55-40.143,29.824-59.842,4.114-7.887,7.584-15.883,11.688-23.775,17.449-33.557,33.283-68.1,50.781-101.752,9.191-17.677,17.565-35.833,26.8-53.595,3.511-6.753,6.721-13.715,10.277-20.552,1.562-3,3.472-6.171,4.836-9.268,4.538-10.306,9.777-20.177,14.912-30.022,7.382-14.155,14.023-28.643,21.36-42.715,3.285-6.3,6.232-12.723,9.471-18.94C436.042,5.946,438.181.386,438.892,0h87.053Q598.28,145.359,670.63,290.746c9.992,19.217,19.219,39.053,29.219,58.23,2.185,4.19,3.853,8.477,6.045,12.694,3.164,6.086,6.063,12.364,9.27,18.536C717.332,384.378,719.934,387.221,720,393.505Z"/>
  <path class="cls-1" d="M477.582,393.505H377.229a17.806,17.806,0,0,0-1.612-3.224c-2.148-4.859-4.774-9.4-6.851-14.1-5.459-12.362-11.878-23.906-17.33-36.268-1.987-4.5-4.867-8.994-6.852-13.5-4.394-9.976-9.5-19.24-13.9-29.215-0.947-2.147-2.48-4.3-3.426-6.448-3.341-7.587-7.135-14.581-10.478-22.164-0.947-2.147-2.48-4.3-3.426-6.447-3.192-7.249-7.153-14.062-10.277-21.156-9.716-22.06-21.51-42.82-31.234-64.879-1.986-4.5-4.867-8.994-6.852-13.5-5.443-12.362-11.89-23.9-17.33-36.268-0.882-2.006-2.219-4.093-3.224-6.044-0.951-1.848-1.477-3.631-2.418-5.44a29.769,29.769,0,0,1-2.62-5.44,0.724,0.724,0,0,0-.2.4c-1.351,1.525-1.95,3.87-2.821,5.843-0.888,2.009-2.338,4.034-3.224,6.044-1.238,2.806-2.229,5.34-3.628,8.06-4.467,8.684-8.895,17.524-12.9,26.6-3.008,6.821-6.8,13.375-9.874,20.35-3.911,8.871-9.192,17.521-13.1,26.395-3.129,7.11-7.014,13.8-10.075,20.753-10.222,23.221-22.613,45.09-32.847,68.3-0.946,2.148-2.48,4.3-3.425,6.448-4.063,9.229-9.105,17.926-13.1,27-3.158,7.173-6.713,13.781-9.875,20.955-0.946,2.147-2.48,4.3-3.425,6.448-3.692,8.389-7.717,16.575-11.889,24.581-1.956,3.753-3.528,7.61-5.441,11.283-0.351.675-1.387,3.731-1.814,4.03h-6.65c-0.982.606-5.666,0.2-7.254,0.2H69.118l-68.917.4c0.314-2.487,2.911-6.121,4.03-8.261,3.083-5.9,5.83-11.917,8.866-17.731,10.343-19.807,19.55-40.143,29.824-59.842,4.114-7.887,7.584-15.883,11.688-23.775,17.449-33.557,33.283-68.1,50.78-101.752,9.192-17.677,17.566-35.833,26.8-53.595,3.512-6.753,6.722-13.715,10.277-20.552,1.563-3,3.473-6.171,4.837-9.268,4.537-10.306,9.777-20.177,14.912-30.022,7.382-14.155,14.023-28.643,21.36-42.715,3.285-6.3,6.232-12.723,9.471-18.94C193.624,5.946,195.763.386,196.474,0h87.052L428.212,290.746c9.992,19.217,19.219,39.053,29.219,58.23,2.185,4.19,3.853,8.477,6.045,12.694,3.164,6.086,6.062,12.364,9.27,18.536C474.913,384.378,477.516,387.221,477.582,393.505Z"/>
  <path class="cls-1" d="M102.166,419.5v67.3H242.418V420.3H477.783v66.491H619.647V419.5l99.95-.2c0.909,2.769.2,10.586,0.2,14.1V568.6c-1.631.536-4.452,0.2-6.448,0.2H0.4c-0.909-2.77-.2-10.587-0.2-14.105V419.5a18.324,18.324,0,0,1,4.635-.2H48.363c0.817,0.5,3.031.2,4.232,0.2h49.572Z"/>
</svg>
